<svg width="64" height="64" viewBox="0 0 64 64" fill="none" xmlns="http://www.w3.org/2000/svg">
<g clip-path="url(#clip0_12_2)">
<path d="M47.2438 8.41277H31.767C22.5275 8.41277 15.0107 15.9296 15.0107 25.1691C15.0107 34.4091 22.5275 41.9258 31.767 41.9258H43.4776V39.3658H31.767C23.9388 39.3658 17.5707 32.9971 17.5707 25.169C17.5707 17.3408 23.9388 10.9728 31.767 10.9728H47.2438C55.072 10.9728 61.4401 17.3409 61.4401 25.1691C61.4401 31.4565 57.4045 36.9135 51.3983 38.7484L52.1458 41.1972C59.2365 39.0309 64.0001 32.5895 64.0001 25.169C64 15.9296 56.4833 8.41277 47.2438 8.41277Z" fill="currentColor"/>
<path d="M32.2333 22.0747H20.5326V24.6347H32.2333C40.0613 24.6347 46.4294 31.0029 46.4294 38.831C46.4294 46.6592 40.0613 53.0273 32.2333 53.0273H16.757C8.92884 53.0273 2.56005 46.6592 2.56005 38.831C2.56005 32.544 6.59561 27.0866 12.6026 25.2517L11.8537 22.803C4.76369 24.9696 0 31.411 0 38.831C0 48.0702 7.51699 55.5872 16.757 55.5872H32.2333C41.4726 55.5872 48.9895 48.0702 48.9895 38.8309C48.9895 29.5915 41.4726 22.0747 32.2333 22.0747Z" fill="currentColor"/>
</g>
<defs>
<clipPath id="clip0_12_2">
<rect width="64" height="64" fill="white"/>
</clipPath>
</defs>
</svg>
