<svg width="64" height="64" viewBox="0 0 64 64" fill="none" xmlns="http://www.w3.org/2000/svg">
<g clip-path="url(#clip0_14_42)">
<path d="M37.6601 32.0007L62.8273 6.83346C64.3909 5.27118 64.3909 2.73632 62.8273 1.17404C61.2637 -0.389569 58.7315 -0.389569 57.1679 1.17404L32.0007 26.3412L6.83213 1.17404C5.26852 -0.389569 2.73632 -0.389569 1.17271 1.17404C-0.390903 2.73632 -0.390903 5.27118 1.17271 6.83346L26.3412 32.0007L1.17271 57.1679C-0.390903 58.7301 -0.390903 61.265 1.17271 62.8273C1.95451 63.6078 2.97913 63.9987 4.00242 63.9987C5.0257 63.9987 6.05032 63.6078 6.83213 62.826L32.0007 37.6588L57.1679 62.826C57.9497 63.6078 58.9743 63.9987 59.9976 63.9987C61.0209 63.9987 62.0455 63.6078 62.8273 62.826C64.3909 61.2637 64.3909 58.7288 62.8273 57.1665L37.6601 32.0007Z" fill="currentColor"/>
</g>
<defs>
<clipPath id="clip0_14_42">
<rect width="64" height="64" fill="white"/>
</clipPath>
</defs>
</svg>
