<svg width="64" height="64" viewBox="0 0 64 64" fill="none" xmlns="http://www.w3.org/2000/svg">
<path d="M32 64C49.6731 64 64 49.6731 64 32C64 14.3269 49.6731 0 32 0C14.3269 0 0 14.3269 0 32C0 49.6731 14.3269 64 32 64Z" fill="currentColor"/>
<path d="M43.1688 19.2375H20.8313C18.1875 19.2375 16.0438 21.3813 16.0438 24.025V39.9813C16.0438 42.625 18.1875 44.7688 20.8313 44.7688H43.1688C45.8125 44.7688 47.9563 42.625 47.9563 39.9813V24.0188C47.9563 21.375 45.8125 19.2375 43.1688 19.2375ZM42.5188 22.425L33.1313 31.8063C32.5125 32.4313 31.5 32.4375 30.875 31.8125L30.8688 31.8063L21.4813 22.425H42.5188V22.425ZM44.7688 39.9813C44.7688 40.8625 44.0563 41.575 43.175 41.575H20.8313C19.95 41.575 19.2375 40.8625 19.2375 39.9813V24.675L28.6188 34.0563C30.4875 35.925 33.5125 35.925 35.3875 34.0563L44.7688 24.675V39.9813V39.9813Z" fill="white"/>
</svg>
