<svg width="64" height="64" viewBox="0 0 64 64" fill="none" xmlns="http://www.w3.org/2000/svg">
<g clip-path="url(#clip0_17_93)">
<path d="M56.2157 5.1524L58.8457 7.7843L30.9643 35.6657L28.3343 33.0357L56.2157 5.1524Z" fill="black"/>
<path d="M59.4 23.2H55.68V8.32001H40.8V4.60001H59.4V23.2Z" fill="black"/>
<path d="M50.1 56.68H12.9C9.738 56.68 7.32 54.262 7.32 51.1V13.9C7.32 10.738 9.738 8.32001 12.9 8.32001H33.36V12.04H12.9C11.784 12.04 11.04 12.784 11.04 13.9V51.1C11.04 52.216 11.784 52.96 12.9 52.96H50.1C51.216 52.96 51.96 52.216 51.96 51.1V30.64H55.68V51.1C55.68 54.262 53.262 56.68 50.1 56.68Z" fill="black"/>
</g>
<defs>
<clipPath id="clip0_17_93">
<rect width="64" height="64" fill="white"/>
</clipPath>
</defs>
</svg>
