<svg width="30" height="30" viewBox="0 0 64 64"><path d="m3.04 24.787.453.674c-.906-.026-1.856-.114-2.037-.504 0-.018.005-.037.01-.056.507-.133.942-.141 1.574-.114Zm4.816 2.053.219.667-.512.021.122-.683a1.8 1.8 0 0 0 .171-.008v.003ZM9.6 31.707c-.453.416-.803.693-1.072 1.325-.373-.307-.568-.915-.688-1.595-.133-.741-.176-1.565-.277-2.181l.032-.315.525-.037 1.339 2.533.141.267v.003Zm-.677-6.246c.066-.455.135-.91.205-1.365l.173-.01c-.128.458-.256.917-.378 1.375Zm-.366-6.192 2.4.651a5.425 5.425 0 0 0-.01.107c-1.118.826-2.15 1.189-2.704 2.682l.21-3.322.104-.115v-.003Zm2.24-3.44c-.154 1.547.064 2.23.334 3.19.426.304.597.488.458.938-.72-.357-1.482-.73-2.586-.672a7.776 7.776 0 0 1-.08-.093c.309-1.219.912-1.968 1.378-2.933l.499-.432-.003.002Zm3.451-2.058.104-.008c-.33 1.141-.464 3.773-1.043 4.818-1.368-.648-1.341-3.456.19-4.565l.746-.245h.003Zm-1.275 8.453 1.152 1.25c-.453 1.393-1.309 2.44-1.672 4.054l-.68-.053c-.581-1.624.872-4.27 1.12-5.454l1.067.123c.133.333.261.667.392 1.003l-1.379-.926v.003Zm3.152-8.464c-.117 1.352.182 2.053.262 3.099-.678.346-1.358.688-2.035 1.032.126-1.4.461-2.772.995-4.072l.778-.059Zm.79-2.053.152-.011-.23.659-.45.029.346-.408.182-.27Zm.152 6.306-2.038 1.254c.043-.758 1.008-1.779 1.816-2.062l.187.102.035.706Zm1.36-4.741a284.05 284.05 0 0 0-.368 2.093l-.382.24-.202.222c-.368-.518-.462-1.787-.382-2.752l1.334.197Zm1.354-1.573c0 .026-.005.048-.008.069l-.52.499c-.346.133-.389.128-.826.112.056-.227.12-.454.181-.68h1.173Zm1.36-2.752-.608 1.373-2.106-.152.008-.112c.866-.4 1.626-.875 2.704-1.112l.002.003Zm-1.098 3.573.224-.133.194.688-.68-.134.262-.424v.003Zm1.776 2.035c-.808.314-1.926.226-2.574.586l-.141-.826.421-.552c.686.266 1.371.538 2.054.808l.24-.016Zm-1.736 1.237-.923.035c-.021-.096-.037-.192-.056-.291.648-.264 1.736-.288 2.715-.397l-1.032.568-.704.085Zm2.413 0c-.776.195-1.52.88-2.03 1.413-.098-.624 1.1-1.722 1.673-2.066.253.226.28.202.357.653Zm1.36-8.221-.01.106-.817.494-1.21.088.01-.107 2.027-.581Zm-1.099 2.064-.261-.387c.613-.515 1.965-.232 2.717-.155l-2.456.542Zm6.075-2.027c1.133.093 2.17.36 2.96.853L32 8.448l-.125.176-1.086.32c-.653-.09-1.306-.187-1.957-.28l-4.299-.61.011-.089a14.333 14.333 0 0 1 4.288-.354v-.003Zm4.515-.363-.24.326a3.28 3.28 0 0 1-1.787-.688l2.037.258-.01.104Zm3.616 2.544.562-.213.584.501c-.08.574-.632 1.043-1.056 1.6l-.325.022c-.885-1.467-2.003-3.07-3.963-3.635l-.085-.173.792-.32c1.33.464 2.44 1.168 3.675 1.573.16.387.109.256-.187.645h.003Zm1.637 3.262-.155-.152-.336.024.56-.534-.069.662Zm.6 7.594c.917.795 1.152 1.947.77 3.44-.394-.885-.786-1.773-1.183-2.658.133-.198.258-.395.389-.592.008-.064.013-.128.024-.19Zm.267-6.186-.011.128-.483.552-.186-.366c.29-.52.08-.24.461-.293l.219-.021Zm.565-.008 2.15.797c-.004.071-.01.143-.02.213-.18.126-.362.246-.543.366l-2.152-.795.018-.216.547-.365Zm4.187 2.754-1.192-.792-.166-.32c.518-.32.443-.304.99-.197.12.437.245.872.368 1.307v.002Zm.677-.261-.24.261c-.288-.149-.339-.338-.437-.69l.621.272.056.157Zm-.507-1.97-.17.013c.186-.179.373-.358.565-.534-.133.174-.267.347-.395.52Zm3.224 3.46-.333.147-1.816-1.021c-.19-.257-.38-.515-.568-.773.941-.694.976.112 1.864.552l.853 1.096Zm.678.609-.678-.248.408-.214.27.462Zm-.827 1.109c.245.493.245.355.827.28l-1.043.901-.995-1.898.014-.118c.733-.157.968.107 1.685.214l.275.442-.76.179h-.003Zm.15 1.235 1.357-.742c-.272.614-.627.928-1.046 1.376l-.312-.634Zm2.714 2.626c-.368.318-.608.419-1.304.478l.56.061-.01.099-1.913.81-.048-2.453 1.318-1.56.24-.115 1.157 2.68Zm-.68-3.765c3.75-1.045 3.024.944 1.352 2.461-.453-.818-.904-1.64-1.352-2.461Zm3.395.397c-1.382 6.491-1.648 6.846-6.534 9.635a8.853 8.853 0 0 0-.256-.387l.174-.725c3.186-.907 4.997-2.576 4.808-6.355l1.597-2.053.21-.115Zm.165 0a31.019 31.019 0 0 0-.165-.672l.506-.016-.341.688Zm-8.312 6.312.048-.717.043-.613.469-.158c.024 0 .045-.005.067-.008.133.814 0 1.414-.267 2.067-.23-.147-.275-.208-.36-.57Zm-2.715 6.022.011-.12.89-2.131.187-.448 1.568.107c.024.117.04.232.048.341.07.81-.21 1.459-.498 2.304l-2.206-.053Zm.68 2.762.019-1.066.027-.267 1.146.085.166-.013c-.264.435-.526.87-.784 1.307l-.574-.046Zm-.672-4.453.07-.035.541-.28.061-.005-.08.285-.317 1.091-.283-.97.008-.086Zm-1.058 3.427-.307-.307c.299.208.104.005.307.307Zm-1.664-.819c.381-.24.794-.165 1.36-.16l-.168.552c-.467.187-.534.117-1.059.061l-.133-.453Zm.832 2.576.525 1.243c-.405.274-.813.546-1.219.824-.362-.499.032-1.894.694-2.067Zm-1.342-4.32-.17.013.224-.509-.054.499v-.003Zm1.955.192-.088-.056.299-.63.098-.002.283.661-.592.027Zm4.701-8.947-.037-.232c.179-.218.293-.354.6-.453l.08.405c-.133.088-.267.174-.397.264l-.246.016Zm-.037 1.68c-.123.163-.341.254-.496.384l-.184-3.44.68 3.056Zm-1.245 4.614c.448-.251.512-.019.565.586h-1.357l.024-.213.768-.373Zm-.667-1.902.307-.261.248.443-.115.245-.565-.067.125-.36Zm-.125 1.824-.707.667-.461-.077-.187.018c.107-.21.219-.421.328-.629l1.027.021Zm-2.56-.392c-.283-.197-.08-.17-.134-.32l.134.32Zm2.138-3.072-2.293-1.189c.107-1.573.299-3.381.144-5.003 1.768.64 3.355 3.518 2.15 6.192Zm-1.613 0c.563.299.533.571 1.315.811.136.51-.072.712-.398 1.253l-.832-.032c-.17-.906.016-1.426-.085-2.032Zm.155 4.451c-.286-.197-.08-.17-.134-.32l.134.32Zm4.594-6.624.008-.128.614-.45c.106.703.066 1.877-.094 2.751-.362-.282-.429-1.477-.528-2.173Zm0 2.173c.139-.229.278-.458.411-.688l-.24.678-.17.01Zm3.96-2.056.115-.008c.032 2.638-1.595 3.118-3.733 4.107l-.342.024 1.334-2.763 2.626-1.36Zm-4.026-5.152c.021.07.045.136.064.206l-.168.122-.51-.688.614.36Zm-.614 1.147.019-.12c.05-.004.1-.008.15-.01l.511.687c-.394-.186-.458-.234-.68-.56v.003Zm.678 1.76-.915.861-1.965-2.853-2.55-2.213.56-.438c1.235.534 3.395 1.55 3.83 2.819.141.413-.347.755-.016 1.099.394.41.789.117 1.058.722l-.002.003Zm-5.728 4.301.208.083.09 1.984-.317-.075c-.299-.221-.507-1.245-.235-1.69l.254-.302ZM39.019 29.6l.218-.008.227.539-.347.133-.333.016c.08-.227.16-.453.235-.68ZM38.4 40.603l-.293-1.006c.418-.12.834-.24 1.253-.365l.107-.005c-.006.03-.01.062-.014.093L38.4 40.6v.003Zm-.973-2.752c.125-.406.213-.467.44-.691l.186.075.054.176-.419.41-.261.027v.003Zm.32.688-.32-.352.68-.336-.176.674-.184.014Zm-.715 3.12c-.096-.075-.187-.152-.283-.232l.208-.014 1.048-.81.102.826-.803.55-.272-.32Zm.053 7.882c-1.634.07-2.613-.346-3.946-.464l-1.528-3.021-.294-.304c2.566-.304 4.179-1.541 6.08-2.397.672.64 2.195 3.898.854 5.341-.32.493-.68.544-1.168.845h.002Zm-7.018-3.394.613-.04c.925.621 1.555 1.733 1.997 2.754l-2.717-.786c.203-.688.288-1.387.107-1.928Zm-1.952-2.598 3.061-.882 4.81.469.086.243c-1.432.645-3.061 1.189-4.704 2.021-1.779.141-2.208-.523-3.44-.96l.19-.89h-.003Zm-.19 3.243.062-.597 1.17-.088c.096.52.198.81.054 1.376l-1.286-.694v.003Zm-1.36 1.077.456-.25c.56-.371.979.122 1.582.317l-.24.235-1.795-.302h-.003Zm1.32-1.074a43.99 43.99 0 0 1-.442-.2l-.198-.488.68.042-.04.646Zm-1.997 0 .68.584c0 .36-.032.32-.115.792l-.565-1.376Zm-1.76-2.579c.637-.195 1.485-.152 2.44-.173l-.888.688-1.827-.179.275-.336ZM22.496 9.728c1.261-1.205 4.424-.845 5.216-.08l.213-.019c-1.053.984-2.685 1.096-3.688 2.07-.786-.523-1.437-.859-1.741-1.971Zm6.933 1.97.534.606a50.5 50.5 0 0 0-1.472.099c-1.123.096-2.232.264-3.008.666l-.102.006-.168-.264a9.717 9.717 0 0 1 4.118-1.104l.098-.008Zm2.646-3.44c.877.88 2.186 1.403 2.64 2.753-1.84-.856-4.672-.843-6.107-2.206 1.264.27 2.341.168 3.467-.546Zm.605 4.817 2.517.346.198-.016-2.019 1.734c-.32-.638-.395-1.502-.696-2.064Zm3.235 2.944-.52-.08.677-.112-.16.192h.003Zm-.52-1.646.621-.61.056.688-.45-.099-.227.021Zm1.232 22.774-.299.013-.256-.24.197-.259.48-.186-.122.674v-.002Zm-.542 1.258c.08-.096.166-.192.251-.288l.021-.266.395.626-.68.062.013-.134Zm-.269 2.198-.421-.507 1.357-.181-.648.666-.288.022Zm.256 2.064-1.357-.163.96-.525.4.688h-.003Zm-.952-1.942.275.262-.984.25-1.054.054 1.467-.688.296.122Zm-3.797-29.714c.792.021 1.629.221 2.034.688-.546-.054-1.53.034-1.778-.387l-.256-.301Zm.688 2.752c.386.338.522.738.453 1.376-.597-.206-.443-.859-.453-1.376Zm.666 4.338.024-.117c1.352-.293 1.643.176 1.027.597-.533-.074-.773-.274-1.048-.48h-.003Zm1.742 17.683.296.075a3.806 3.806 0 0 0-.011.096l-.667.517.278-.68.104-.008ZM34.045 19l.507-.419.163.688-.678-.149.006-.12h.002Zm2.027 18.4-1.64.43-.395.018c0-.021.006-.045.011-.067.613-.122 1.008-.325 1.37-.621l.577.107.08.133h-.003Zm-1.17-1.616-.187-.381.466-.307.214.115-.267.554-.227.019Zm-4.26 4.76.809-.63 2.501.214.085.187-1.69.976c-.627-.104-1.168-.382-1.494-.763l-.213.016h.003Zm-1.255.059 1.253.688-2.035-.36c.262-.107.52-.219.782-.328Zm-.102 1.405-.008.165-.386.214-.286.037.011-.165c.296-.392.245-.262.667-.251h.002ZM26.085 14l-.194-.205c.674-.368 1.738-.544 2.784-.627.861-.072 1.709-.08 2.317-.093l.33 2.064c-.887-.096-1.733-.214-2.647-.254a13.87 13.87 0 0 0-2.368.086c-.073-.324-.146-.648-.222-.971Zm.998 27.613.165.294-.16.616-1.875.144c.2-.614.499-.91.822-1.376l1.048.322Zm-2.315-2.386c-.853-.048-2.021-.672-2.272-1.376l2.717.69-.445.686Zm.955-.038-.51.038.016-.166.566-.522c-.027.216-.048.432-.072.65Zm-1.867-25.165.827-.261.53.666-.56.022-.8-.427h.003Zm-.01 29.547c-.046.149-.086.301-.129.453-.066.004-.131.01-.197.019l-.344-.688.68.069-.01.147Zm.375-2.968 1.584.32.086.213-1.23 1.53-1.485-.218 1.045-1.845Zm11.851-21.568.307-.451.112-.003.853.214.085.122-.952.352-.405-.234Zm1.837-2.224-.48-.294c.488.179.208-.024.48.294Zm-.154 3.146-.326-.277.68-.41-.354.687Zm-.326 4.816 1.056.262c.286.112.278.141.302.426-.454-.173-1.211-.293-1.358-.688Zm.107-1.874.144-.187.43.685-.68-.133.106-.365ZM23.784 45.54l.072.182-.915.349-.445.035.01-.094.313-.488c.432-.2.442-.069.965.016Zm-1.965-34.533c.592.443.746.987.653 2.755-.39-.499-.627-1.558-.653-2.752v-.003Zm.389-1.373-.048.498-.339.024.39-.522h-.003Zm-.39.688c-.018.165-.031.33-.053.496l-.626-.115.517-.37.16-.011h.003Zm0 39.914.337-3.504 2.378-.626-2.501 4.002-.213.128Zm.169-9.418.365-.216c.333.394.035.962-.28 1.376-.261-.246-.29-.4-.221-.958l.133-.202h.003Zm-2.206-.336.782-1.256 1.253.736c-.427.672-.861 1.344-1.293 2.016-.39-.347-.63-.856-.742-1.494v-.002Zm0 5.389 1.254-1.141.589.053.195.32c-.054.336-.102.67-.15 1.003l-1.888-.235Zm-2.034-.933 1.493-.896 1.136.178.085.158-1.197 1.04c-.597-.062-.995-.222-1.307-.494l-.213.014h.003Zm-.2-1.331.546-.253.235.05.096.112-1.581.526-.454-.16 1.158-.275Zm-1.838-.645.4-.968c.742-.096.918.269 1.475.501l.16.245-.83.568-.674.046-.53-.392Zm-1.36 2.824.99-1.744c.656 0 .736.053 1.005.4.12.202.016.093-.245.138l-.062.6 1.03.16c-.203.504-.235.438-.539.758-1.013.053-1.47-.139-2.176-.312h-.003Zm-1.141-2.432 1.725.52.096.205-1.106 1.339-1.608-.528.893-1.536ZM6.56 41.493l.021-.205.963.741.083.198c-2.003 1.546 1.061 6.586 4.546 3.32l1.499.602c-.576 1.027-1.565 1.432-2.608 2.014-2.493.208-5.984-3.864-4.507-6.67h.003Zm2.325.704.038.467c-.187-.141-.374-.277-.555-.419l-.125-.269.64.221h.002Zm3.43 2.923-1.24.96c-2.443.256-3.432-1.435-3.512-3.512l.477-.576.208-.016c1.23.968 2.317 2.445 3.987 2.933l.08.211ZM9.949 35.093c-.221-.16-.234-.24-.346-.512l.464-1.765.541-.475.35.512-1.009 2.24Zm-.346.595 1.069-2.53.219-.129c.493.87 1.208 1.264 1.424 2.446l-1.611 1.682A3.262 3.262 0 0 1 9.6 35.691l.003-.003Zm2.034 2.107 1.36-1.326.675 1.379c-.678-.02-1.356-.038-2.035-.053Zm3.392-13.907c-.642 1.373-1.498 2.307-2.01 3.637-.224-1.208 1.125-2.944 1.56-4.01l.208-.12.242.493Zm0-3.787c1.011-.312 1.688-.882 2.411-1.522l.307.917-.859 1.147-1.859-.539v-.003Zm3.395.072-.368.47-.31-.054.006-.074.619-.56.053.218Zm-.533-2.965.106-.005.427.898-.16.478c-.621-.326-.597-.712-.373-1.371Zm-.128 19.95.626.45-.642-.283a2.71 2.71 0 0 1 .016-.168Zm-.011.69.672.29a2.364 2.364 0 0 0-.01.08l-1.44 1.006c-.414-.187-.465-.557-.587-.96l.013-.085 1.352-.331Zm-2.008-1.379.645.262-.346.2-.334.037.035-.499Zm-.035-13.76c.816.23.558.075.592.686-.373-.219-.4-.323-.592-.688v.002Zm0 12.291.056-.595c.318.222.427.352.624.688L15.71 35Zm1.36-8.595c-.256.328-.245.24-.68.43l.296-.688.382.258h.002Zm0-2.768-.426.446c-.427-.24-.227-.144-.035-.59l.253-.098.206.242h.002Zm-.056-1.17-.624-.448c.48.184.368.072.624.448ZM15.71 35.093l.68.542c-.346-.008-.533-.083-.68-.542Zm2.038-.026-.278.026-.237-.437-.165-.213.368-.038c.104.222.205.443.312.662Zm-.374-12.742-.306-.304c.298.208.101.006.304.307l.002-.003Zm.04 11.334-.346-.72.146-.592.086-.006.448 1.376-.334-.058Zm-1.778 8.008.074.09-.242.91a1.86 1.86 0 0 1-1.115-1.376l1.283.378v-.002Zm-1.963 1 .68.602c-.435-.192-.461-.184-.68-.602Zm1.173-6.102.08.595-.573-.688.493.093Zm-.672 3.219-.501-1.245c.595.226 1.059.906 1.36 1.376l-.859-.131Zm.534-12.25.168-.006-.496.688c-.08-.17.018-.333.293-.533l.035-.152v.002Zm-.355 5.914-.136.272-.39-.301-.154-.328.533-.059.147.416ZM9.6 39.227c1.36.885 3.672 1.706 4.072 3.44a11.292 11.292 0 0 1-4.072-3.44Zm3.528-.667.544.667-1.357-.688.813.021Zm4.97 2.043-1.031-1.04 1.805-1.712.232 1.885-1.005.867Zm1.006 1.149.179-.448.24-.013.258.688-.677-.227Zm.915-2.525-.238-.688.494.09-.256.598Zm-.915-23.174.005-.061c.224-.053.448-.107.672-.165l-.469.688-.208-.462ZM12.259 30.28l-.622-1.376c.798.173.667.741.622 1.376Zm-1.662.688c-.581-.403-.952-1.205-.997-2.064 1.192.28 1.125.75 1.36 1.837l-.363.227Zm-.701-3.592c-.867-.819.395-4.093.95-4.848.293-.37.66-.363 1.146-.507l.323.083c-.816 1.445-1.366 3.413-1.56 5.424l-.859-.152ZM8.629 38.539l.414.696-.371.866-.213.227c.304.043.373-.219.826-.59.88 1.427 2.224 2.793 3.707 3.569l-.808 1.424-2.453-1.579c-.28-.52.106-1.117-.344-1.435-.408-.288-.934.128-1.35.003l-1.152-1.056c.339-.757.664-1.499 1.334-1.885l.41-.24Zm-2.346-7.59c.092-.686.225-1.366.397-2.037l.09-.008.355 2.045.187 1.067a1098.2 1098.2 0 0 0 1.61 4.456c-1.29-.704-2.087-2.333-1.973-4.525-.309.706-.053 1.818.048 2.442-.792-.672-.893-2.008-.717-3.44h.003Zm-1.179.707a2.51 2.51 0 0 1-.23-.827 5.416 5.416 0 0 1 .011-1.16l.118-.245.525-.52-.296 1.923-.128.826v.003Zm47.259 6.88-1.358-.523 1.318-.162.04.688v-.003Zm-35.92 11.2.354-.187-.41.686.053-.496.003-.003ZM6.205 26.152l-.578-.053c-.72-.238-1.395-1.078-1.456-2.011 1.101.099 1.474.621 2.018 1.259.006.266.014.536.016.805Zm-.08-.056c.08-1.485-1.053-2.413-2.525-2.373.25-2.086 2.064-3.152 3.68-3.854l.312-.024c-.27 2.619-.064 4.875-1.043 7.142-.722 1.669-3.285 1.637-3.146 4.213l.018.213c.366 3.424 4.088 4.12 4.603 7.131-5.52 2.808 1.208 14.608 5.573 7.677.784.112 1.48.467 2.454.126.453-.251.541-.454.717-.976l1.56.808.08.197c-1.43 1.11-2.437 2.632-3.973 3.672l.146-.421-.4-.072-.221.12-.2.933c.877.896 3.536-2.344 4.315-2.979-.44 1.539-1.528 2.331-2.134 3.739l.187.192c1.147-.821 2.552-3.147 2.765-4.915l1.718.286c-2.152 2.909-7.68 9.309-10.587 11.018.443-1.389 1.147-2.45 1.504-3.592l-.208.016a37.512 37.512 0 0 0-.187-.192c-.706 1.392-1.872 2.371-2.08 4.248.125.186.282.348.464.478 3.456-.576 9.227-9.262 11.984-11.635-.746 7.493-4.762 8.661-8.245 13.2 3.165-1.579 5.085-5.605 7.792-7.84-.299 3.128-1.043 10.123-2.915 11.368l.31-.024c2.101-1.307 2.224-6.68 2.925-9.427l.299-2.888 3-4.213.218-.12c.336 1.053 1.856 2.197 3.502 1.89l1.181-.495 2.965 1.109c.39 4.267.24 6.659-2.461 9.907 2.76-1.411 3.773-6.846 2.853-9.731 6.419.744 6.16-1.421 4.944-6.096l1.128.019c-.208-.312-.77-.08-1.2-.32-.194-.126-.157-.102-.277-.288 1.525-1.72 5.2-.011 4.427 2.845 1.056-2.368-1.278-4.475-3.526-3.627.96-1.138 2.123-2.074 2.731-3.581l.219-.117 5.28 5.546.312-.024.24-.325c-1.68-1.99-3.358-3.981-5.032-5.973l.538-.246a1.093 1.093 0 0 1 .931-.322 66.28 66.28 0 0 1-.267-.134c2.696.27 6.142 2.518 8.955 1.792.259-.45.272-.693.115-1.133 2.997.075 8.389-.928 10.106-2.384-4.613.968-9.808 1.296-14.042.73l-3.752-.44-.211.017 1.01-1.814c3.094-.058 11.206-.136 12.846-2.077l-.363-.485-1.413-.203a1.05 1.05 0 0 0-.16.525l1.12.12c-2.432.614-9.205 1.907-11.416 1.152-.232-.282-.061-1.264-.05-1.97a2.576 2.576 0 0 0-.017-.379c3.179-.95 5.539-3.088 6.507-6.315.552-1.848.187-4.274 1.381-5.426.763.066.918.389 1.478.608-.296-.411-.72-.64-1.251-.827l-.995.685c-.909.352-1.861-.568-3.405.15-1.253-1.072-1.96-2.766-3.653-3.414l-.174-.293 2.054-1.997c-.672.562-1.358 1.226-2.043 1.893l-1.376-.616-.08-.2c1.568-1.11 2.96-1.52 4.744-1.168.083.165.17.328.256.493-.083.142-.157.182-.23.222l-.6-.16c.26.152.529.2.798.248l.227-.222.034-.309c-.389-.347-.509-.597-1.274-.624l.365-.539c-.875.603-2.65.763-3.52 1.286l2.01-1.584.24-.323-3.72 2.219c-.794-.054-1.64-.427-2.069-.872l-.205.016 4.416-2.987-.072-.301c-1.675.976-3.352 1.952-5.024 2.93l-1.605-.394.149-1.443 11.512-9.04.205-.016-.162-.397c-.427-.203-2.179 1.218-2.84 1.642-2.55 1.635-4.803 3.67-7.31 5.147 1.035-1.315 2.928-2.624 3.243-4.539l-.507-.064-.789.672.859-.373c-.555 1.688-3.067 4.701-4.486 5.656l-.165-.397c.923-1.552 1.832-3.64 1.405-5.632l-.773-.454-.83.062c.531.21.891.261 1.28.52.249 1.93-.7 3.237-1.213 4.8l-.218.117c-.342-.632-.32-.936-1.022-1.05l-.061-.406.48-.65.33-.23c.113.213.118.136.153.501.098-.157.152-.337.157-.522l-.392-.176-1.037 1.098c-.867-.578-1.822-1.186-3.04-1.413.69-1.432 2.789-3.733 1.706-5.55-1.322-2.207-5.837.337-7.49 2.089a3.278 3.278 0 0 0-.496.65c.163-.13.329-.258.496-.384 1.632-1.216 5.976-4.128 6.917-1.8.987 1.299-.904 3.798-1.419 4.814-1.76-.179-3.6-.347-5.493-.31a19.792 19.792 0 0 0-5.87.944c-.96.318-5.055 2.771-5.213 2.739l-1.866-1.808-3.904-1.96-.022.205-.229.222 5.003 4.234-.763.467c-2.059-1.56-3.477-2.507-6.541-3.304l-.518.04c1.79 1.232 3.592 2.36 5.392 3.49l.36.486c-1.285.541-1.829 1.667-2.914 2.365-1.696-.81-3.267-1.546-5.323-2.168l-.144.422 3.85 2.48.209-.016-.664.458C9 16.245 8.4 17.443 7.899 18.9c-1.92 1.562-4.408 1.469-4.795 4.653-.613.168-1.045.221-1.605.632l-.043.413c.352.491 3.47 1.811 4.213 1.939l.459-.443-.003.003ZM28.9 4.08l.285.053-.381-.048c-.067 0-.134.006-.198.008.302-.56 1.187-.698 2.038-.637l-.059.405-1.664.083-.021.133v.003Zm1.189.739.8-.262c.347-.576.544-1.186.368-1.744-.824-.162-1.299.038-2.07.363-.14.228-.28.456-.418.685l-.16.267c.05.057.103.11.16.16.261.213.576.288 1.155.24.16.272-.027.152-.312.227l.48.064h-.003Zm19.741 6.194-.858.16.528-.037.605.261-.917 1.68c.472-.557.941-.952 1.141-1.797l-.499-.267Zm-4.933 26.84c-.213-.381-.445-.632-.677-.69.205.194.442.424.677.69Zm-2.715 8.256-.677.395.52-.048.16-.347h-.003Zm2.715-8.256c.69.779 1.208 2.272 1.059 3.44.784-1.693-.11-2.749-1.059-3.44Z" fill="currentColor"></path></svg>