<svg width="64" height="64" viewBox="0 0 64 64" fill="none" xmlns="http://www.w3.org/2000/svg">
<g clip-path="url(#clip0_21_199)">
<path d="M32 63.9994C49.6731 63.9994 64 49.6726 64 31.9994C64 14.3263 49.6731 -0.000564575 32 -0.000564575C14.3269 -0.000564575 0 14.3263 0 31.9994C0 49.6726 14.3269 63.9994 32 63.9994Z" fill="CurrentColor"/>
<path d="M45.1347 12.8381H18.8664C15.5408 12.8381 12.8427 15.5362 12.8427 18.8676V45.1359C12.8427 48.4615 15.5408 51.1596 18.8664 51.1596H45.1347C48.4604 51.1596 51.1585 48.4615 51.1585 45.1359V18.8676C51.1585 15.5362 48.4604 12.8381 45.1347 12.8381ZM41.0613 17.2703L45.8757 17.2589H45.8871C46.3492 17.2532 46.7257 17.6297 46.7257 18.0861V22.9176C46.7257 23.3797 46.3549 23.7504 45.8928 23.7504L41.0841 23.7675C40.6221 23.7675 40.2513 23.3968 40.2513 22.9404L40.2342 18.1089C40.2285 17.6468 40.5993 17.2761 41.0613 17.2703ZM26.128 28.7075C26.2535 28.4907 26.3847 28.2739 26.533 28.0686C27.7594 26.3687 29.7502 25.2564 31.9977 25.2564C34.2509 25.2564 36.2417 26.3687 37.4682 28.0686C37.6165 28.2739 37.7477 28.4907 37.8732 28.7132C38.4208 29.6829 38.7459 30.8067 38.7459 31.9989C38.7459 35.7181 35.7169 38.7413 31.9977 38.7413C28.2785 38.7413 25.2552 35.7181 25.2552 31.9989C25.2547 30.8067 25.5747 29.6829 26.128 28.7075ZM47.4279 43.7554C47.4279 45.7805 45.7793 47.429 43.7543 47.429H20.2469C18.2218 47.429 16.5733 45.7805 16.5733 43.7554V28.0686H22.2947C22.1521 28.4166 22.0266 28.7816 21.9239 29.1467C21.6615 30.0537 21.5246 31.012 21.5246 31.9989C21.5246 37.7773 26.225 42.4777 31.9977 42.4777C37.7762 42.4777 42.4765 37.7773 42.4765 31.9989C42.4765 31.012 42.3339 30.0537 42.0772 29.1467C41.9689 28.7816 41.8491 28.4166 41.7065 28.0686H47.4279V43.7554V43.7554Z" fill="white"/>
</g>
<defs>
<clipPath id="clip0_21_199">
<rect width="64" height="64" fill="white"/>
</clipPath>
</defs>
</svg>
