<svg width="56" height="56" viewBox="0 0 56 56" fill="none" xmlns="http://www.w3.org/2000/svg">
<path fill-rule="evenodd" clip-rule="evenodd" d="M3.95556 19C7.31427 10.0309 15.5477 3.44263 25.4306 2.46033C21.188 6.98692 18.4394 12.5111 17.1637 19H3.95556ZM3.29949 21C2.67011 23.2252 2.33333 25.5733 2.33333 28C2.33333 30.4267 2.67011 32.7748 3.29948 35H16.8216C16.4958 32.773 16.3333 30.4393 16.3333 28C16.3333 25.5607 16.4958 23.227 16.8216 21H3.29949ZM18.8434 21C18.5037 23.2123 18.3333 25.5452 18.3333 28C18.3333 30.4548 18.5037 32.7877 18.8434 35H37.1566C37.4963 32.7877 37.6667 30.4548 37.6667 28C37.6667 25.5452 37.4963 23.2123 37.1566 21H18.8434ZM39.1784 21C39.5042 23.227 39.6667 25.5607 39.6667 28C39.6667 30.4393 39.5042 32.773 39.1784 35H52.7005C53.3299 32.7748 53.6667 30.4267 53.6667 28C53.6667 25.5733 53.3299 23.2252 52.7005 21H39.1784ZM52.0444 19H38.8363C37.5606 12.5111 34.812 6.98692 30.5694 2.46033C40.4523 3.44263 48.6857 10.0309 52.0444 19ZM52.0444 37H38.8363C37.5606 43.4889 34.812 49.0131 30.5694 53.5397C40.4523 52.5574 48.6857 45.9691 52.0444 37ZM36.7965 37H19.2035C20.5606 43.5434 23.5013 48.9625 28 53.2972C32.4987 48.9625 35.4394 43.5434 36.7965 37ZM17.1637 37H3.95556C7.31426 45.9691 15.5477 52.5574 25.4306 53.5397C21.188 49.0131 18.4394 43.4889 17.1637 37ZM36.7965 19H19.2035C20.5606 12.4566 23.5013 7.0375 28 2.7028C32.4987 7.0375 35.4394 12.4566 36.7965 19ZM0.333333 28C0.333333 12.7201 12.7201 0.333333 28 0.333333C43.2799 0.333333 55.6667 12.7201 55.6667 28C55.6667 43.2799 43.2799 55.6667 28 55.6667C12.7201 55.6667 0.333333 43.2799 0.333333 28Z" fill="currentColor"/>
</svg>
