<svg width="64" height="64" viewBox="0 0 64 64" fill="none" xmlns="http://www.w3.org/2000/svg">
<path d="M31.9999 0C49.674 0 64 14.328 64 32.0001C64 49.6722 49.674 64 31.9999 64C14.3258 64 0 49.672 0 32.0001C0 14.3282 14.326 0 31.9999 0Z" fill="currentColor"/>
<path d="M18.032 43.968H24.024V23.9959H18.032V43.968ZM41.3761 23.3041C38.468 23.3041 35.866 24.3661 34.0202 26.7102V23.9302H28.0061V43.9682H34.0202V33.1322C34.0202 30.8421 36.1182 28.6081 38.7461 28.6081C41.3741 28.6081 42.0222 30.8421 42.0222 33.0762V43.9662H48.0142V32.6302C48.014 24.756 44.2861 23.3041 41.3761 23.3041ZM21 22C22.656 22 24.0001 20.656 24.0001 18.9999C24.0001 17.3439 22.656 16.0001 21 16.0001C19.344 16.0001 17.9999 17.3441 17.9999 19.0002C17.9999 20.6562 19.344 22 21 22Z" fill="white"/>
</svg>
