<svg width="60" height="60" viewBox="0 0 60 60" fill="none" xmlns="http://www.w3.org/2000/svg">
<path fill-rule="evenodd" clip-rule="evenodd" d="M29.5107 5.17728C30.083 5.17728 30.5462 4.71353 30.5462 4.14177V1.03551C30.5462 0.463745 30.083 0 29.5107 0C28.9384 0 28.4752 0.463745 28.4752 1.03551V4.14177C28.4752 4.71353 28.9384 5.17728 29.5107 5.17728ZM10.8401 12.4477C11.0422 12.6498 11.3073 12.7511 11.5721 12.7511C11.837 12.7511 12.1021 12.6501 12.3042 12.4477C12.7087 12.0437 12.7087 11.388 12.3042 10.9835L10.108 8.78677C9.70352 8.38226 9.0484 8.38226 8.6439 8.78677C8.23939 9.19069 8.23939 9.84639 8.6439 10.2509L10.8401 12.4477ZM46.7172 10.9835L48.9134 8.78677C49.3179 8.38226 49.973 8.38226 50.3775 8.78677C50.782 9.19069 50.782 9.84639 50.3775 10.2509L48.1813 12.4477C47.9792 12.6501 47.7141 12.7511 47.4493 12.7511C47.1844 12.7511 46.9193 12.6498 46.7172 12.4477C46.3127 12.0437 46.3127 11.388 46.7172 10.9835ZM44.6038 16.9527C42.6573 14.8651 40.3496 13.243 37.7449 12.1314C37.3677 11.9711 36.9318 12.0469 36.6327 12.3266C36.3324 12.6062 36.2262 13.036 36.3597 13.4234C38.72 20.2311 36.84 27.8044 31.5727 32.7168C26.3034 37.6296 18.6175 38.9767 11.992 36.1469C11.618 35.9872 11.179 36.0624 10.8799 36.342C10.5796 36.6217 10.4733 37.0514 10.6069 37.4388C11.5353 40.1156 12.9924 42.5307 14.9389 44.6171C18.6329 48.5789 23.6493 50.8653 29.0632 51.0544C29.306 51.0631 29.5476 51.0669 29.7892 51.0669C34.9371 51.0669 39.8191 49.1471 43.6031 45.6181C47.566 41.9232 49.8513 36.9071 50.0404 31.4929C50.2288 26.0786 48.2986 20.915 44.6038 16.9527ZM47.9711 31.4206C47.8012 36.2816 45.7482 40.7858 42.191 44.1031C38.6337 47.4202 33.9954 49.1631 29.1355 48.9842C24.2736 48.8149 19.77 46.7622 16.4532 43.2044C15.2307 41.8945 14.2237 40.4402 13.444 38.864C20.2593 40.8595 27.7097 39.1506 32.9843 34.2318C38.2597 29.3124 40.4844 21.9978 38.9686 15.0605C40.4873 15.9483 41.8678 17.0546 43.0891 18.3657C46.4068 21.9229 48.1401 26.5598 47.9711 31.4206ZM50.3775 49.7488L48.1813 47.5526C47.7768 47.1481 47.1217 47.1481 46.7172 47.5526C46.3127 47.9571 46.3127 48.6122 46.7172 49.0168L48.9134 51.2129C49.1155 51.4151 49.3806 51.5164 49.6454 51.5164C49.9103 51.5164 50.1754 51.4153 50.3775 51.2129C50.782 50.8084 50.782 50.1533 50.3775 49.7488ZM29.5107 54.8227C28.9384 54.8227 28.4752 55.2865 28.4752 55.8582V58.9645C28.4752 59.5363 28.9384 60 29.5107 60C30.083 60 30.5462 59.5363 30.5462 58.9645V55.8582C30.5462 55.2865 30.083 54.8227 29.5107 54.8227ZM54.8796 28.9645H57.9859C58.5579 28.9645 59.0214 29.4282 59.0214 30C59.0214 30.5718 58.5582 31.0355 57.9859 31.0355H54.8796C54.3073 31.0355 53.8441 30.5718 53.8441 30C53.8441 29.4282 54.3073 28.9645 54.8796 28.9645ZM8.6439 49.7488L10.8401 47.5526C11.2446 47.1481 11.8997 47.1481 12.3042 47.5526C12.7087 47.9571 12.7087 48.6122 12.3042 49.0168L10.108 51.2129C9.90592 51.4153 9.6408 51.5164 9.37597 51.5164C9.11113 51.5164 8.84601 51.4151 8.6439 51.2129C8.23939 50.8084 8.23939 50.1533 8.6439 49.7488ZM1.03551 28.9645H4.14206C4.71412 28.9645 5.17728 29.4282 5.17728 30C5.17728 30.5718 4.71412 31.0355 4.14177 31.0355H1.03551C0.463165 31.0355 0 30.5718 0 30C0 29.4282 0.463165 28.9645 1.03551 28.9645Z" fill="currentColor"/>
</svg>
