<svg width="60" height="60" viewBox="0 0 60 60" fill="none" xmlns="http://www.w3.org/2000/svg">
<path fill-rule="evenodd" clip-rule="evenodd" d="M51.2978 23.3333H56.9111C58.6144 23.3333 60 24.7189 60 26.4222V33.5778C60 35.2811 58.6144 36.6667 56.9111 36.6667H51.2978C50.3956 36.6667 49.65 37.1633 49.3056 37.9967C48.9611 38.83 49.1356 39.7078 49.7722 40.3456L53.7411 44.3133C54.3244 44.8978 54.6456 45.6733 54.6456 46.4978C54.6456 47.3233 54.3244 48.1 53.7411 48.6833L48.6822 53.7422C47.5156 54.9089 45.4811 54.9111 44.3122 53.7422L40.3444 49.7733C39.7067 49.1367 38.83 48.96 37.9956 49.3067C37.1622 49.6522 36.6656 50.3956 36.6656 51.2978V56.9111C36.6656 58.6145 35.28 60 33.5767 60H26.4222C24.7189 60 23.3333 58.6145 23.3333 56.9111V51.2978C23.3333 50.3956 22.8367 49.6522 22.0033 49.3067C21.1689 48.9611 20.2922 49.1367 19.6544 49.7733L15.6867 53.7422C14.5178 54.9122 12.4844 54.91 11.3167 53.7422L6.25778 48.6833C5.67444 48.0989 5.35333 47.3233 5.35333 46.4978C5.35333 45.6733 5.67444 44.8967 6.25778 44.3133L10.2267 40.3456C10.8633 39.7078 11.0389 38.83 10.6933 37.9967C10.3478 37.1633 9.60445 36.6667 8.70222 36.6667H3.08889C1.38556 36.6667 0 35.2811 0 33.5767V26.4222C0 24.7189 1.38556 23.3333 3.08889 23.3333H8.70222C9.60445 23.3333 10.3489 22.8367 10.6933 22.0033C11.0378 21.17 10.8633 20.2922 10.2267 19.6544L6.25778 15.6867C5.67444 15.1022 5.35333 14.3267 5.35333 13.5022C5.35333 12.6767 5.67444 11.9 6.25778 11.3167L11.3167 6.25777C12.4833 5.09111 14.5178 5.08889 15.6867 6.25777L19.6544 10.2256C20.2922 10.8622 21.1722 11.0411 22.0033 10.6933C22.8367 10.3478 23.3333 9.60445 23.3333 8.70222V3.08889C23.3333 1.38556 24.7189 0 26.4222 0H33.5778C35.2811 0 36.6667 1.38556 36.6667 3.08889V8.70222C36.6667 9.60445 37.1633 10.3478 37.9967 10.6933C38.8278 11.04 39.7078 10.8622 40.3456 10.2256L44.3133 6.25777C45.4822 5.08889 47.5167 5.09111 48.6833 6.25777L53.7422 11.3167C54.3256 11.9011 54.6467 12.6767 54.6467 13.5022C54.6467 14.3267 54.3256 15.1033 53.7422 15.6867L49.7733 19.6544C49.1367 20.2922 48.9611 21.17 49.3067 22.0033C49.6522 22.8367 50.3956 23.3333 51.2978 23.3333ZM56.9111 34.4444C57.3889 34.4444 57.7778 34.0556 57.7778 33.5778V26.4222C57.7778 25.9444 57.3889 25.5556 56.9111 25.5567H51.2978C49.4933 25.5567 47.9433 24.5211 47.2533 22.8544C46.5622 21.1878 46.9267 19.3589 48.2022 18.0833L52.1711 14.1156C52.51 13.7778 52.51 13.2278 52.1711 12.8889L47.1122 7.83C46.7756 7.49111 46.2256 7.49111 45.8856 7.83L41.9178 11.7978C40.6422 13.0733 38.8156 13.4378 37.1467 12.7467C35.48 12.0567 34.4444 10.5067 34.4444 8.70222V3.08889C34.4444 2.61111 34.0556 2.22222 33.5767 2.22222H26.4222C25.9444 2.22222 25.5556 2.61111 25.5556 3.08889V8.70222C25.5556 10.5067 24.52 12.0567 22.8533 12.7456C21.1844 13.4367 19.3567 13.0711 18.0822 11.7967L14.1144 7.82889C13.7756 7.49 13.2256 7.49 12.8878 7.82889L7.82889 12.8878C7.49 13.2256 7.49 13.7756 7.82889 14.1144L11.7978 18.0822C13.0744 19.3578 13.4378 21.1867 12.7467 22.8533C12.0567 24.52 10.5067 25.5556 8.70222 25.5556H3.08889C2.61111 25.5556 2.22222 25.9444 2.22222 26.4222V33.5778C2.22222 34.0556 2.61111 34.4444 3.08889 34.4444H8.70222C10.5067 34.4444 12.0567 35.48 12.7467 37.1456C13.4378 38.8122 13.0733 40.6411 11.7978 41.9167L7.82889 45.8844C7.49 46.2222 7.49 46.7722 7.82889 47.1111L12.8878 52.17C13.2244 52.5078 13.7744 52.51 14.1144 52.17L18.0822 48.2011C18.9311 47.3522 20.0233 46.9078 21.15 46.9078C21.7189 46.9078 22.2944 47.0211 22.8533 47.2533C24.52 47.9433 25.5556 49.4933 25.5556 51.2978V56.9111C25.5556 57.3889 25.9444 57.7778 26.4222 57.7778H33.5778C34.0556 57.7778 34.4444 57.3889 34.4444 56.9111V51.2978C34.4444 49.4933 35.48 47.9433 37.1467 47.2533C38.8133 46.5645 40.6411 46.9256 41.9178 48.2022L45.8856 52.1711C46.2244 52.5111 46.7744 52.5089 47.1122 52.1711L52.1711 47.1122C52.51 46.7744 52.51 46.2244 52.1711 45.8856L48.2022 41.9178C46.9256 40.6422 46.5622 38.8133 47.2533 37.1467C47.9433 35.48 49.4933 34.4444 51.2978 34.4444H56.9111ZM20 30C20 24.4855 24.4856 20 30 20C35.5144 20 40 24.4855 40 30C40 35.5145 35.5144 40 30 40C24.4856 40 20 35.5145 20 30ZM22.2222 30C22.2222 34.2878 25.7122 37.7778 30 37.7778C34.2878 37.7778 37.7778 34.2878 37.7778 30C37.7778 25.7122 34.2878 22.2222 30 22.2222C25.7122 22.2222 22.2222 25.7122 22.2222 30Z" fill="currentColor"/>
</svg>
