<svg width="64" height="64" viewBox="0 0 64 64" fill="none" xmlns="http://www.w3.org/2000/svg">
<path d="M32.0003 63.9994C49.6732 63.9994 64 49.6727 64 31.9997C64 14.3268 49.6732 0 32.0003 0C14.3273 0 0.000564575 14.3268 0.000564575 31.9997C0.000564575 49.6727 14.3273 63.9994 32.0003 63.9994Z" fill="currentColor"/>
<path d="M51.6012 22.9973C50.2299 23.6053 48.7548 24.0166 47.2078 24.2003C48.7873 23.254 49.9995 21.7566 50.5716 19.9694C49.0936 20.8462 47.456 21.4822 45.7144 21.825C44.3192 20.3391 42.3313 19.4104 40.13 19.4104C35.9066 19.4104 32.4812 22.8358 32.4812 27.0593C32.4812 27.6588 32.549 28.2423 32.6802 28.8025C26.3234 28.4836 20.687 25.4387 16.9142 20.8097C16.256 21.9391 15.8784 23.254 15.8784 24.6555C15.8784 27.3085 17.2297 29.6507 19.2809 31.022C18.0277 30.9826 16.8475 30.6387 15.8167 30.0643C15.8162 30.0968 15.8162 30.1293 15.8162 30.1612C15.8162 33.8673 18.4538 36.9584 21.9522 37.6606C21.3111 37.8363 20.634 37.9293 19.9375 37.9293C19.4435 37.9293 18.9649 37.8819 18.4983 37.793C19.4715 40.831 22.2956 43.0426 25.6435 43.1048C23.0252 45.1566 19.7276 46.379 16.143 46.379C15.527 46.379 14.9166 46.3431 14.3194 46.2718C17.7026 48.4428 21.7241 49.7086 26.0433 49.7086C40.1123 49.7086 47.8062 38.0536 47.8062 27.9451C47.8062 27.6137 47.7988 27.2834 47.7839 26.956C49.2796 25.8779 50.5762 24.5311 51.6012 22.9973Z" fill="#F1F2F2"/>
</svg>
