<svg width="64" height="64" viewBox="0 0 64 64" fill="none" xmlns="http://www.w3.org/2000/svg">
<path d="M32 64C49.6731 64 64 49.6731 64 32C64 14.3269 49.6731 0 32 0C14.3269 0 0 14.3269 0 32C0 49.6731 14.3269 64 32 64Z" fill="currentColor"/>
<path d="M36.6144 16.9688H27.3856C18.9631 16.9688 16.9688 18.9631 16.9688 27.3856V36.6144C16.9688 45.0369 18.9631 47.0312 27.3856 47.0312H36.6144C45.0369 47.0312 47.0312 45.0369 47.0312 36.6144V27.3856C47.0312 18.9631 45.0156 16.9688 36.6144 16.9688V16.9688ZM41.2394 38.4175H39.0519C38.2244 38.4175 37.97 37.76 36.485 36.2537C35.1906 35.0037 34.6181 34.8325 34.2975 34.8325C33.8519 34.8325 33.7244 34.9575 33.7244 35.575V37.5481C33.7244 38.0788 33.5544 38.3969 32.1544 38.3969C29.8419 38.3969 27.275 36.9969 25.4713 34.3869C22.7556 30.5681 22.0131 27.7038 22.0131 27.11C22.0131 26.7919 22.1381 26.495 22.7556 26.495H24.9431C25.495 26.495 25.7069 26.7494 25.9188 27.3438C27.0006 30.4625 28.8044 33.1994 29.5438 33.1994C29.8194 33.1994 29.9469 33.0744 29.9469 32.3719V29.1469C29.8619 27.6619 29.0769 27.5344 29.0769 27.0044C29.0769 26.75 29.2887 26.495 29.6287 26.495H33.0662C33.5331 26.495 33.7025 26.7494 33.7025 27.3013V31.65C33.7025 32.1169 33.9144 32.2863 34.0419 32.2863C34.3175 32.2863 34.5513 32.1163 35.06 31.6075C36.63 29.8469 37.7544 27.1313 37.7544 27.1313C37.9031 26.8131 38.1575 26.5163 38.7094 26.5163H40.8969C41.5544 26.5163 41.7031 26.8556 41.5544 27.3225C41.2787 28.5956 38.6056 32.3719 38.6056 32.3719C38.3725 32.7538 38.2875 32.9237 38.6056 33.3475C38.8388 33.6656 39.6056 34.3231 40.1119 34.9175C41.0456 35.98 41.7669 36.8694 41.9575 37.4844C42.1731 38.0994 41.8544 38.4175 41.2394 38.4175V38.4175Z" fill="white"/>
</svg>
