<svg width="53" height="53" viewBox="0 0 53 53" fill="none" xmlns="http://www.w3.org/2000/svg">
<path fill-rule="evenodd" clip-rule="evenodd" d="M52.4 19.2H48.68V6.95004L23.9643 31.6657L21.3343 29.0357L46.0483 4.32001H33.8V0.600006H52.4V19.2ZM5.9 52.68H43.1C46.262 52.68 48.68 50.262 48.68 47.1V26.64H44.96V47.1C44.96 48.216 44.216 48.96 43.1 48.96H5.9C4.784 48.96 4.04 48.216 4.04 47.1V9.89999C4.04 8.784 4.784 8.04001 5.9 8.04001H26.36V4.32001H5.9C2.738 4.32001 0.32 6.73801 0.32 9.89999V47.1C0.32 50.262 2.738 52.68 5.9 52.68Z" fill="#ffffff"/>
</svg>
