<svg width="64" height="64" viewBox="0 0 64 64" xmlns="http://www.w3.org/2000/svg">
<path clip-rule="evenodd" d="M50.4 0.666664H13.6C6.10133 0.666664 0 6.78533 0 14.308V23.3333V26V49.6933C0 57.2147 6.10133 63.3333 13.6 63.3333H50.4C57.8987 63.3333 64 57.2147 64 49.6933V26V23.3333V14.308C64 6.78533 57.8987 0.666664 50.4 0.666664ZM61.3333 49.6933C61.3333 55.744 56.428 60.6667 50.4 60.6667H13.6C7.57066 60.6667 2.66667 55.744 2.66667 49.6933V26H18.9613C15.4933 29.3907 13.3333 34.112 13.3333 39.3333C13.3333 49.6267 21.7067 58 32 58C42.2933 58 50.6667 49.6267 50.6667 39.3333C50.6667 34.112 48.5067 29.3907 45.0387 26H61.3333V49.6933ZM48 39.3333C48 48.156 40.8227 55.3333 32 55.3333C23.1773 55.3333 16 48.156 16 39.3333C16 30.5107 23.1773 23.3333 32 23.3333C40.8227 23.3333 48 30.5107 48 39.3333ZM41.5653 23.3333C38.764 21.652 35.4987 20.6667 32 20.6667C28.5013 20.6667 25.236 21.652 22.4347 23.3333H2.66667V14.308C2.66667 8.256 7.57201 3.33334 13.6 3.33334H50.4C56.428 3.33334 61.3333 8.256 61.3333 14.308V23.3333H41.5653ZM53.8667 7.33334H47.4667C45.5547 7.33334 44 8.888 44 10.8V17.2C44 19.112 45.5547 20.6667 47.4667 20.6667H53.8667C55.7787 20.6667 57.3333 19.112 57.3333 17.2V10.8C57.3333 8.888 55.7787 7.33334 53.8667 7.33334ZM54.6667 17.2C54.6667 17.6413 54.308 18 53.8667 18H47.4667C47.0253 18 46.6667 17.6413 46.6667 17.2V10.8C46.6667 10.3587 47.0253 10 47.4667 10H53.8667C54.308 10 54.6667 10.3587 54.6667 10.8V17.2ZM32 51.3333C25.3827 51.3333 20 45.9493 20 39.3333C20 32.7173 25.3827 27.3333 32 27.3333C38.6173 27.3333 44 32.7173 44 39.3333C44 45.9493 38.6173 51.3333 32 51.3333ZM32 48.6667C37.1453 48.6667 41.3333 44.48 41.3333 39.3333C41.3333 34.1867 37.1453 30 32 30C26.8547 30 22.6667 34.1867 22.6667 39.3333C22.6667 44.48 26.8547 48.6667 32 48.6667Z" fill="#ffffffb3"/>
</svg>
