<svg width="64" height="64" viewBox="0 0 64 64" xmlns="http://www.w3.org/2000/svg">
<path clip-rule="evenodd" d="M58.7075 37.2238C57.6731 35.8991 56.1201 35.1393 54.4465 35.1393C52.903 35.1393 51.4288 35.8013 50.4018 36.9557C49.3609 38.1257 48.8894 39.6364 49.0738 41.2094C49.3516 43.5793 51.2618 45.552 53.6158 45.9003C55.5778 46.1912 57.476 45.4412 58.6931 43.8958C59.264 43.1709 60.1132 42.7553 61.0234 42.7553C62.668 42.7553 63.9999 44.0872 63.9999 45.7242V59.791C63.9999 62.1118 62.1118 63.9999 59.7908 63.9997H45.7239C44.0869 63.9997 42.755 62.6679 42.755 61.0309C42.755 60.1079 43.164 59.2643 43.8773 58.7074C45.202 57.673 45.9618 56.12 45.9618 54.4464C45.9618 52.9029 45.2996 51.4287 44.1454 50.4018C42.9756 49.3609 41.4648 48.8889 39.8917 49.0738C37.5218 49.3517 35.549 51.2618 35.2008 53.6158C34.9104 55.5779 35.6599 57.476 37.2053 58.6931C37.9302 59.264 38.3458 60.1133 38.3458 61.0234C38.3458 62.668 37.0139 63.9999 35.3769 63.9999H19.1722C16.8515 63.9999 14.9633 62.1118 14.9633 59.791V45.7242C14.9633 45.1922 14.5305 44.7594 13.9986 44.7594C13.6971 44.7594 13.4291 44.8874 13.2547 45.1108C11.8381 46.9254 9.70922 47.9662 7.41412 47.9662C5.29885 47.9662 3.27899 47.0592 1.87213 45.4778C0.466487 43.8977 -0.19724 41.7767 0.0509902 39.6585C0.43249 36.4053 3.05636 33.6968 6.29025 33.2183C8.9721 32.8218 11.5681 33.8487 13.2353 35.9654C13.4236 36.2047 13.6991 36.3418 13.9911 36.3418C14.5307 36.3418 14.9635 35.9089 14.9635 35.377V19.1723C14.9635 16.8516 16.8516 14.9635 19.1723 14.9635H35.377C35.9091 14.9635 36.3418 14.5306 36.3418 13.9987C36.3418 13.6972 36.2138 13.4292 35.9904 13.2549C34.1758 11.8382 33.1351 9.70936 33.1351 7.41424C33.1351 5.29899 34.042 3.27912 35.6234 1.87225C37.2035 0.466624 39.3247 -0.197126 41.4427 0.0511269C44.696 0.432627 47.4045 3.0565 47.883 6.29036C48.2797 8.97199 47.2528 11.5682 45.1359 13.2355C44.8967 13.4237 44.7595 13.6992 44.7595 13.9912C44.7595 14.5309 45.1924 14.9636 45.7243 14.9636H59.791C62.1118 14.9636 63.9999 16.8517 63.9999 19.1725V35.3772C63.9999 37.0142 62.668 38.3461 61.031 38.3461C60.108 38.3461 59.2644 37.9369 58.7075 37.2238ZM47.0834 41.4427C46.835 39.3247 47.4988 37.2036 48.9045 35.6234C50.3113 34.0421 52.3313 33.1351 54.4467 33.1351C56.7416 33.1351 58.8705 34.1758 60.2873 35.9904C60.4616 36.2138 60.7296 36.3418 61.0224 36.3418C61.563 36.3418 61.9958 35.9089 61.9958 35.377V19.1723C61.9958 17.9567 61.0067 16.9677 59.7911 16.9677H45.7241C44.0872 16.9677 42.7553 15.6359 42.7553 13.9988C42.7553 13.0812 43.1709 12.2317 43.8958 11.661C45.4412 10.4437 46.1905 8.54561 45.9003 6.58361C45.5521 4.22949 43.5793 2.31938 41.2094 2.04162C39.6365 1.8575 38.1257 2.32875 36.9557 3.36962C35.8013 4.39649 35.1393 5.87074 35.1393 7.41424C35.1393 9.08798 35.899 10.641 37.2238 11.6752C37.9369 12.2321 38.346 13.0757 38.346 13.9901C38.346 15.6359 37.0142 16.9677 35.3772 16.9677H19.1725C17.9568 16.9677 16.9678 17.9567 16.9678 19.1723V35.377C16.9678 37.0141 15.636 38.3459 13.999 38.3459C13.0812 38.3459 12.2318 37.9303 11.6611 37.2054C10.4438 35.6602 8.54586 34.9107 6.58374 35.2009C4.22961 35.5491 2.31948 37.5219 2.04174 39.8918C1.85736 41.4648 2.32885 42.9757 3.36975 44.1455C4.39648 45.2999 5.87084 45.9619 7.41436 45.9619C9.0881 45.9619 10.6411 45.2022 11.6753 43.8774C12.2322 43.1642 13.0758 42.7552 13.9902 42.7552C15.636 42.7552 16.9678 44.087 16.9678 45.724V59.791C16.9678 61.0066 17.9568 61.9956 19.1725 61.9956H35.3772C35.9092 61.9956 36.3419 61.5627 36.3419 61.0309C36.3419 60.7312 36.2048 60.4559 35.9657 60.2675C33.8487 58.6003 32.8217 56.004 33.2184 53.3224C33.6968 50.0886 36.4053 47.4646 39.6587 47.0831C39.9507 47.049 40.2429 47.0322 40.5337 47.0322C42.3516 47.0322 44.1157 47.6927 45.4779 48.9048C47.0593 50.3115 47.9663 52.3315 47.9663 54.4468C47.9663 56.7418 46.9255 58.8706 45.1109 60.2874C44.8875 60.4617 44.7595 60.7298 44.7595 61.0225C44.7595 61.5631 45.1924 61.9959 45.7243 61.9959H59.7913C61.0069 61.9959 61.9959 61.0069 61.9959 59.7913V45.7244C61.9959 45.1924 61.563 44.7597 61.0311 44.7597C60.7315 44.7597 60.4561 44.8968 60.2678 45.1359C58.6005 47.2528 56.0041 48.2793 53.3227 47.883C50.0889 47.4045 47.4649 44.696 47.0834 41.4427ZM40.5507 24.5838H43.7574C44.3109 24.5838 44.7598 25.0325 44.7598 25.586C44.7598 26.1395 44.311 26.5881 43.7577 26.5881H43.3949L38.7957 39.4658C38.5737 40.0873 38.0039 40.4888 37.3441 40.4888C36.684 40.4888 36.1143 40.0872 35.8924 39.4658L33.6028 33.0548L31.3132 39.4658C31.0912 40.0873 30.5216 40.4888 29.8616 40.4888C29.2016 40.4888 28.6318 40.0872 28.4099 39.4658L23.8107 26.5881H23.448C22.8945 26.5881 22.4458 26.1395 22.4458 25.586C22.4458 25.0325 22.8946 24.5838 23.448 24.5838H26.6547C27.2082 24.5838 27.6568 25.0325 27.6568 25.586C27.6568 26.1395 27.2081 26.5881 26.6547 26.5881H25.9388L29.8614 37.5713L32.5386 30.0754L31.2932 26.5881H30.9304C30.3769 26.5881 29.9283 26.1393 29.9283 25.586C29.9283 25.0325 30.3771 24.5838 30.9304 24.5838H34.1372C34.6907 24.5838 35.1393 25.0326 35.1393 25.586C35.1393 26.1395 34.6905 26.5881 34.1372 26.5881H33.4213L37.3439 37.5713L41.2665 26.5881H40.5507C39.9972 26.5881 39.5485 26.1393 39.5485 25.586C39.5485 25.0325 39.9973 24.5838 40.5507 24.5838Z" fill="#000000"/>
</svg>
