<svg width="64" height="64" viewBox="0 0 64 64" fill="none" xmlns="http://www.w3.org/2000/svg">
<path d="M63.3589 18.4307C63.3589 18.217 62.7179 13.5159 60.6879 11.2722C58.2304 8.60108 55.5593 8.28054 54.1704 8.17361H53.743C45.0886 7.53255 32.1605 7.42574 31.9467 7.42574C31.8399 7.42574 18.8048 7.53255 10.2572 8.38735H9.93668C8.44069 8.49415 5.76961 8.81468 3.41907 11.4858C1.28214 13.7295 0.641068 18.5375 0.641068 18.7512C0.641068 18.7512 0 24.2003 0 29.6494V34.6711C0 40.0134 0.641068 45.4625 0.641068 45.5693C0.641068 45.783 1.28214 50.4841 3.31214 52.7278C5.55588 55.2921 8.22696 55.6126 9.93655 55.8264C10.2571 55.8264 10.4708 55.8264 10.7914 55.9332C15.7062 56.3605 31.3055 56.5742 31.9466 56.5742C32.0534 56.5742 45.0885 56.5742 53.7429 55.6126H54.0634C55.5593 55.5058 58.2304 55.1853 60.5809 52.5141C62.7179 50.2704 63.3589 45.4624 63.3589 45.2486C63.3589 45.2486 64 39.7996 64 34.3505V29.3289C64 23.9866 63.3589 18.5375 63.3589 18.4307ZM61.8631 34.5642C61.8631 39.9065 61.222 45.2486 61.222 45.2486C61.0083 46.424 60.3672 49.8429 58.9783 51.3388C57.1619 53.4757 55.025 53.6893 53.8497 53.7962H53.5292C44.9816 54.4373 32.0534 54.4373 31.9466 54.4373C31.8398 54.4373 15.8131 54.2236 11.1119 53.6894C10.7914 53.6894 10.4708 53.5826 10.1503 53.5826C8.65442 53.4758 6.51761 53.1553 4.80801 51.2321C3.52587 49.8432 2.778 46.4241 2.67108 45.2488C2.67108 45.1419 2.03001 39.7997 2.03001 34.5643V29.5426C2.03001 24.2003 2.67108 18.8582 2.67108 18.8582C2.77788 17.6828 3.52587 14.2639 4.80801 12.768C6.73121 10.6311 8.76122 10.4174 10.0434 10.3105H10.3639C18.9115 9.66948 31.8397 9.56268 31.9465 9.56268C32.0533 9.56268 44.9816 9.66948 53.5291 10.3105H53.9564C55.1317 10.4174 57.2685 10.6311 59.0849 12.768C60.3671 14.2639 61.0081 17.6828 61.2219 18.8582C61.3287 19.0719 61.8629 24.414 61.8629 29.5426V34.5642H61.8631Z" fill="black"/>
<path d="M45.3021 32.1069L25.0017 20.2471C24.6811 20.0334 24.2538 20.0334 23.9332 20.2471C23.6127 20.4608 23.399 20.7814 23.399 21.2087V44.394C23.399 44.8213 23.6127 45.1418 23.9332 45.3556C24.147 45.4624 24.2538 45.4624 24.4675 45.4624C24.6812 45.4624 24.788 45.4624 25.0018 45.3556L45.3022 34.0301C45.6228 33.8163 45.8365 33.4958 45.8365 33.0685C45.8365 32.6411 45.6226 32.3205 45.3021 32.1069ZM25.5359 42.5776V23.025L42.631 33.0683L25.5359 42.5776Z" fill="black"/>
</svg>
